<svg data-v-fde0c5aa="" xmlns="http://www.w3.org/2000/svg" viewBox="0 0 300 300" class="iconLeft"><!----><defs data-v-fde0c5aa=""><!----></defs><rect data-v-fde0c5aa="" fill="transparent" x="0" y="0" width="300px" height="300px" class="logo-background-square"></rect><defs data-v-fde0c5aa=""><!----></defs><g data-v-fde0c5aa="" id="68faaf8f-1ef5-42ba-9cba-2834b498d9f2" fill="#000000" transform="matrix(1.931753475963393,0,0,1.931753475963393,95.64640954768808,131.2330137651216)"><path d="M0.36 3.43C0.20 3.43 0.14 3.49 0.14 3.65L0.14 4.21C0.14 4.38 0.18 4.44 0.36 4.44L3.71 4.44L3.71 13.01C3.71 13.17 3.75 13.23 3.93 13.23L4.61 13.23C4.77 13.23 4.82 13.17 4.82 13.01L4.82 4.44L8.18 4.44C8.34 4.44 8.39 4.38 8.39 4.21L8.39 3.65C8.39 3.49 8.36 3.43 8.18 3.43ZM10.19 13.01C10.19 13.17 10.23 13.23 10.40 13.23L11.02 13.23C11.19 13.23 11.24 13.17 11.24 13.01L11.24 6.33C11.24 6.16 11.20 6.10 11.02 6.10L10.40 6.10C10.23 6.10 10.19 6.16 10.19 6.33ZM9.97 3.77C9.97 4.17 10.29 4.49 10.70 4.49C11.10 4.49 11.44 4.17 11.44 3.77C11.44 3.36 11.10 3.04 10.70 3.04C10.29 3.04 9.97 3.36 9.97 3.77ZM15.30 3.77C15.30 4.17 15.62 4.49 16.04 4.49C16.44 4.49 16.77 4.17 16.77 3.77C16.77 3.36 16.44 3.04 16.04 3.04C15.62 3.04 15.30 3.36 15.30 3.77ZM13.40 6.76C13.40 6.92 13.47 6.99 13.61 6.99L15.55 6.99L15.55 7.32L15.55 13.34C15.55 14.98 15.06 15.58 13.94 15.58C13.68 15.58 13.27 15.54 12.92 15.33C12.74 15.23 12.70 15.25 12.66 15.46L12.56 15.89C12.52 16.06 12.54 16.10 12.66 16.17C13.23 16.53 13.86 16.53 14.04 16.53C15.89 16.53 16.59 15.37 16.59 13.41L16.59 6.33C16.59 6.16 16.55 6.10 16.38 6.10L13.61 6.10C13.47 6.10 13.40 6.16 13.40 6.33ZM19.87 7.10C20.40 7 21.13 6.87 22.02 6.87C23.49 6.87 24.01 7.52 24.01 9.28C23.30 8.99 22.48 8.79 21.74 8.79C20.02 8.79 18.87 9.53 18.87 11.06C18.87 12.56 20.02 13.38 21.36 13.38C22.88 13.38 23.80 12.57 24.18 12.05L24.23 13.01C24.28 13.17 24.33 13.23 24.44 13.23L24.85 13.23C25.00 13.23 25.06 13.17 25.06 13.01L25.06 9.31C25.06 7 24.42 5.95 22.06 5.95C20.99 5.95 19.82 6.16 19.66 6.20C19.49 6.26 19.45 6.33 19.49 6.48L19.60 6.90C19.64 7.07 19.68 7.14 19.87 7.10ZM21.95 9.58C22.75 9.58 23.30 9.79 24.01 10.08L24.01 11.24C23.56 11.90 22.65 12.56 21.69 12.56C20.55 12.56 19.92 11.93 19.92 11.06C19.92 10.11 20.62 9.58 21.95 9.58ZM28.24 6.33C28.17 6.16 28.11 6.10 28 6.10L27.65 6.10C27.50 6.10 27.44 6.16 27.44 6.33L27.44 9.53L27.44 13.01C27.44 13.17 27.50 13.23 27.65 13.23L28.28 13.23C28.43 13.23 28.49 13.17 28.49 13.01L28.49 9.48C28.49 8.08 29.27 6.90 30.49 6.90C31.63 6.90 32.47 7.71 32.47 9.38L32.47 13.01C32.47 13.17 32.52 13.23 32.68 13.23L33.31 13.23C33.46 13.23 33.52 13.17 33.52 13.01L33.52 9.10C33.52 6.86 32.24 5.95 30.74 5.95C29.37 5.95 28.64 7.03 28.35 7.59ZM36.27 7.10C36.81 7 37.53 6.87 38.43 6.87C39.90 6.87 40.42 7.52 40.42 9.28C39.70 8.99 38.89 8.79 38.15 8.79C36.43 8.79 35.28 9.53 35.28 11.06C35.28 12.56 36.43 13.38 37.77 13.38C39.28 13.38 40.21 12.57 40.59 12.05L40.64 13.01C40.68 13.17 40.74 13.23 40.85 13.23L41.26 13.23C41.41 13.23 41.47 13.17 41.47 13.01L41.47 9.31C41.47 7 40.82 5.95 38.47 5.95C37.39 5.95 36.23 6.16 36.06 6.20C35.90 6.26 35.85 6.33 35.90 6.48L36.01 6.90C36.05 7.07 36.09 7.14 36.27 7.10ZM38.36 9.58C39.16 9.58 39.70 9.79 40.42 10.08L40.42 11.24C39.97 11.90 39.06 12.56 38.09 12.56C36.96 12.56 36.33 11.93 36.33 11.06C36.33 10.11 37.03 9.58 38.36 9.58ZM47.49 3.65C47.43 3.49 47.36 3.43 47.21 3.43L46.35 3.43C46.21 3.43 46.19 3.49 46.26 3.65L49.88 13.27C49.94 13.41 49.98 13.47 50.04 13.47L50.13 13.47C50.19 13.47 50.23 13.40 50.29 13.27L52.75 5.33L55.22 13.27C55.27 13.40 55.31 13.47 55.37 13.47L55.47 13.47C55.54 13.47 55.57 13.40 55.62 13.27L59.25 3.65C59.32 3.49 59.29 3.43 59.15 3.43L58.30 3.43C58.14 3.43 58.07 3.49 58.02 3.65L55.37 11.12L53.02 3.47C52.96 3.32 52.92 3.25 52.82 3.25L52.68 3.25C52.58 3.25 52.54 3.32 52.49 3.47L50.13 11.12ZM60.70 7.10C61.24 7 61.96 6.87 62.86 6.87C64.33 6.87 64.85 7.52 64.85 9.28C64.13 8.99 63.32 8.79 62.58 8.79C60.86 8.79 59.71 9.53 59.71 11.06C59.71 12.56 60.86 13.38 62.20 13.38C63.71 13.38 64.64 12.57 65.02 12.05L65.07 13.01C65.11 13.17 65.17 13.23 65.28 13.23L65.69 13.23C65.84 13.23 65.90 13.17 65.90 13.01L65.90 9.31C65.90 7 65.25 5.95 62.90 5.95C61.82 5.95 60.66 6.16 60.49 6.20C60.33 6.26 60.28 6.33 60.33 6.48L60.44 6.90C60.48 7.07 60.52 7.14 60.70 7.10ZM62.79 9.58C63.59 9.58 64.13 9.79 64.85 10.08L64.85 11.24C64.40 11.90 63.49 12.56 62.52 12.56C61.39 12.56 60.76 11.93 60.76 11.06C60.76 10.11 61.46 9.58 62.79 9.58ZM68.33 13.01C68.33 13.17 68.39 13.23 68.56 13.23L69.17 13.23C69.34 13.23 69.38 13.17 69.38 13.01L69.38 3.12C69.38 2.95 69.34 2.90 69.17 2.90L68.56 2.90C68.39 2.90 68.33 2.95 68.33 3.12ZM74.30 9.45L77.80 6.33C77.91 6.22 77.87 6.10 77.73 6.10L76.85 6.10C76.69 6.10 76.62 6.16 76.48 6.33L73.23 9.24L73.23 3.12C73.23 2.95 73.19 2.90 73.01 2.90L72.41 2.90C72.24 2.90 72.18 2.95 72.18 3.12L72.18 13.01C72.18 13.17 72.24 13.23 72.41 13.23L73.01 13.23C73.18 13.23 73.23 13.17 73.23 13.01L73.23 9.73L76.66 13.01C76.80 13.17 76.87 13.23 77.03 13.23L77.92 13.23C78.05 13.23 78.15 13.17 77.99 13.01ZM82.15 12.53C81.23 12.53 80.40 12.18 79.79 11.75C79.62 11.62 79.55 11.69 79.48 11.83L79.28 12.18C79.20 12.33 79.20 12.40 79.32 12.49C80.36 13.17 81.47 13.38 82.21 13.38C84.01 13.38 85.08 12.46 85.08 11.17C85.08 9.81 83.73 9.37 82.35 9.17C81.07 8.99 80.37 8.85 80.37 8.08C80.37 7.31 80.95 6.80 82.12 6.80C83.03 6.80 83.57 7.01 84.32 7.48C84.49 7.59 84.56 7.52 84.63 7.38L84.81 7.04C84.88 6.92 84.91 6.83 84.74 6.73C83.76 6.13 82.80 5.95 82.07 5.95C80.42 5.95 79.38 6.80 79.38 8.13C79.38 9.60 80.71 9.93 82.10 10.11C83.37 10.29 84.07 10.61 84.07 11.23C84.07 11.94 83.51 12.53 82.15 12.53Z"></path></g><defs data-v-fde0c5aa=""><linearGradient data-v-fde0c5aa="" gradientTransform="rotate(25)" id="bb5f41f4-6712-4a27-9f74-9fd4ccdc3c82" x1="0%" y1="0%" x2="100%" y2="0%"><stop data-v-fde0c5aa="" offset="0%" stop-color="#67635D" stop-opacity="1"></stop><stop data-v-fde0c5aa="" offset="100%" stop-color="#FFD6AD" stop-opacity="1"></stop></linearGradient></defs><g data-v-fde0c5aa="" id="b4905f1c-8278-496c-9fba-5dc3526c1850" stroke="none" fill="url(#bb5f41f4-6712-4a27-9f74-9fd4ccdc3c82)" transform="matrix(0.42916426106960265,0,0,0.42916426106960265,39.82833429301414,128.5415706404896)"><path d="M90.159 86.956c-9.812 0-16.491-6.532-20.135-11.46L40.533 24.394h.001L28.973 3.987v8.408a13.274 13.274 0 0 0-3.273-.409c-5.321 0-9.911 3.129-12.034 7.648H.403c0 .033-.003.069-.003.104 0 7.34 5.951 13.29 13.291 13.29.373 0 .739-.021 1.103-.051l10.514 18.218v37.14s-8.532-.265-8.532 7.679h42.168s.151 0 .406-.019a13.225 13.225 0 0 0 7.957-3.031c3.524 3.021 8.343 3.05 8.343 3.05h14.02c10.14 0 10.731-9.058 10.731-9.058H90.159z"></path></g><!----></svg>