<svg data-v-423bf9ae="" xmlns="http://www.w3.org/2000/svg" viewBox="0 0 65.19890294975264 60" class="icon"><!----><!----><!----><!----><g data-v-423bf9ae="" id="cd2805f7-32c5-4fc6-9873-82bb055e462f" transform="matrix(0.6519825132538407,0,0,0.6519825132538407,-0.26079303157030154,-2.599453796044557)" stroke="none" fill="black"><path d="M90.159 86.956c-9.812 0-16.491-6.532-20.135-11.46L40.533 24.394h.001L28.973 3.987v8.408a13.274 13.274 0 0 0-3.273-.409c-5.321 0-9.911 3.129-12.034 7.648H.403c0 .033-.003.069-.003.104 0 7.34 5.951 13.29 13.291 13.29.373 0 .739-.021 1.103-.051l10.514 18.218v37.14s-8.532-.265-8.532 7.679h42.168s.151 0 .406-.019a13.225 13.225 0 0 0 7.957-3.031c3.524 3.021 8.343 3.05 8.343 3.05h14.02c10.14 0 10.731-9.058 10.731-9.058H90.159z"></path></g><!----></svg>