<svg data-v-fde0c5aa="" xmlns="http://www.w3.org/2000/svg" viewBox="0 0 300 300" class="icon"><!----><defs data-v-fde0c5aa=""><!----></defs><rect data-v-fde0c5aa="" fill="transparent" x="0" y="0" width="300px" height="300px" class="logo-background-square"></rect><!----><defs data-v-fde0c5aa=""><linearGradient data-v-fde0c5aa="" gradientTransform="rotate(25)" id="d44fb6b3-cf45-45c7-8d56-1e556887932f" x1="0%" y1="0%" x2="100%" y2="0%"><stop data-v-fde0c5aa="" offset="0%" stop-color="#67635D" stop-opacity="1"></stop><stop data-v-fde0c5aa="" offset="100%" stop-color="#FFD6AD" stop-opacity="1"></stop></linearGradient></defs><g data-v-fde0c5aa="" id="4c3b53c5-bf8a-406c-b683-3ac2f3015801" fill="url(#d44fb6b3-cf45-45c7-8d56-1e556887932f)" stroke="none" transform="matrix(2.199978012304717,0,0,2.199978012304717,39.120008781965225,39.99999055871863)"><path d="M90.159 86.956c-9.812 0-16.491-6.532-20.135-11.46L40.533 24.394h.001L28.973 3.987v8.408a13.274 13.274 0 0 0-3.273-.409c-5.321 0-9.911 3.129-12.034 7.648H.403c0 .033-.003.069-.003.104 0 7.34 5.951 13.29 13.291 13.29.373 0 .739-.021 1.103-.051l10.514 18.218v37.14s-8.532-.265-8.532 7.679h42.168s.151 0 .406-.019a13.225 13.225 0 0 0 7.957-3.031c3.524 3.021 8.343 3.05 8.343 3.05h14.02c10.14 0 10.731-9.058 10.731-9.058H90.159z"></path></g><!----></svg>